<?xml version="1.0" encoding="utf-8"?>
<!-- Generator: Adobe Illustrator 16.0.0, SVG Export Plug-In . SVG Version: 6.00 Build 0)  -->
<!DOCTYPE svg PUBLIC "-//W3C//DTD SVG 1.1//EN" "http://www.w3.org/Graphics/SVG/1.1/DTD/svg11.dtd">
<svg version="1.1" id="Layer_1" xmlns="http://www.w3.org/2000/svg" xmlns:xlink="http://www.w3.org/1999/xlink" x="0px" y="0px"
	 width="100px" height="100px" viewBox="0 0 100 100" enable-background="new 0 0 100 100" xml:space="preserve">
<path fill="#55354A" d="M50,4.036C24.615,4.036,4.036,24.615,4.036,50c0,25.386,20.579,45.964,45.964,45.964
	c25.386,0,45.964-20.578,45.964-45.964C95.964,24.615,75.386,4.036,50,4.036z M65.142,64.577L51.378,78.354
	c-0.393,0.394-0.857,0.589-1.389,0.579c-0.527,0-0.997-0.199-1.389-0.579L34.879,64.577c-0.392-0.401-0.594-0.853-0.594-1.359
	c0-0.518,0.202-0.969,0.594-1.36l2.046-2.086c0.398-0.399,0.856-0.592,1.391-0.592c0.532,0,0.987,0.192,1.368,0.592l10.392,10.402
	l10.221-10.402c0.395-0.399,0.854-0.592,1.381-0.592c0.523,0,0.986,0.192,1.381,0.592l2.043,2.086
	c0.393,0.392,0.602,0.843,0.613,1.36C65.726,63.725,65.536,64.176,65.142,64.577z"/>
</svg>
