<?xml version="1.0" encoding="utf-8"?>
<!-- Generator: Adobe Illustrator 16.0.0, SVG Export Plug-In . SVG Version: 6.00 Build 0)  -->
<!DOCTYPE svg PUBLIC "-//W3C//DTD SVG 1.1//EN" "http://www.w3.org/Graphics/SVG/1.1/DTD/svg11.dtd">
<svg version="1.1" id="Layer_1" xmlns="http://www.w3.org/2000/svg" xmlns:xlink="http://www.w3.org/1999/xlink" x="0px" y="0px"
	 width="100px" height="100px" viewBox="0 0 100 100" enable-background="new 0 0 100 100" xml:space="preserve">
<image display="none" overflow="visible" width="400" height="600" xlink:href="../../../../../../../../Downloads/donkey_pinata__94391_zoom.jpg"  transform="matrix(1 0 0 1 -301.5 100)">
</image>
<g>
	<g>
		<g>
			<g>
				<path d="M51.889,91.34c-2.025,0-4.546,0-4.812-3.865c-0.12-1.757-1.655-9.073-2.882-14.67l-4.554,14.605
					c-0.27,0.855-1.288,3.636-3.129,3.636c-0.157,0-0.318,0.007-0.48,0.014c-0.193,0.008-0.389,0.016-0.582,0.016
					c-0.961,0-2.271-0.198-3.044-1.777l-0.814-0.109c-0.598-0.005-2.488-0.354-2.705-4.47c-0.118-2.259-0.988-8.708-1.633-13.285
					l-4.126,15.832c-0.02,0.076-0.049,0.149-0.085,0.218c-0.044,0.082-1.095,1.996-3.719,1.996c-0.866,0-2.119-0.111-2.994-1.074
					c-0.866-0.953-1.163-2.513-0.935-4.91c0.379-3.974,4.293-29.301,4.677-31.78l-1.97-11.999c-1.151-0.991-4.334-3.856-4.827-5.635
					c-0.989-3.569,0.782-6.34,5.267-8.246l-1.189-10.884c-0.149-0.729-0.091-2.288,1.163-2.949c0.217-0.114,0.454-0.172,0.707-0.172
					c1.315,0,2.79,1.765,3.552,2.817l3.231,5.057l1.729-7.816c0.154-0.577,0.971-3.231,2.954-3.231c0.024,0,0.125,0.004,0.148,0.005
					c2.724,0.195,6.471,15.863,6.492,16.02c0.308,2.245,0.597,15.575,0.597,18.813c0,1.832,5.178,3.526,7.666,4.341
					c1.055,0.345,1.888,0.618,2.436,0.875c3.199,1.5,6.533,4.581,7.012,16.062c0.483,11.612,0.684,22.892,0.686,23.004
					c0.001,0.082-0.007,0.163-0.025,0.243C55.435,89.17,54.297,91.34,51.889,91.34z M44.357,67.924c0.014,0,0.026,0,0.04,0.001
					c0.452,0.018,0.836,0.338,0.936,0.779c0.145,0.642,3.541,15.754,3.739,18.633c0.133,1.935,0.605,2.002,2.816,2.002
					c1.229,0,1.716-1.285,1.833-1.669c-0.024-1.35-0.229-11.936-0.681-22.813c-0.493-11.816-4.119-13.516-5.862-14.333
					c-0.438-0.205-1.259-0.474-2.209-0.785c-3.817-1.25-9.044-2.96-9.044-6.242c0-3.585-0.301-16.516-0.579-18.542
					c-0.276-2.03-3.496-12.358-4.819-14.209c-0.271,0.236-0.662,0.922-0.851,1.621l-2.239,10.126
					c-0.088,0.395-0.404,0.698-0.802,0.769c-0.404,0.069-0.801-0.106-1.018-0.447l-4.497-7.041c-0.562-0.772-1.336-1.58-1.768-1.855
					c-0.06,0.185-0.069,0.5-0.025,0.737l1.283,11.718c0.05,0.452-0.213,0.881-0.638,1.043c-5.854,2.23-5.067,5.065-4.771,6.133
					c0.279,1.008,2.782,3.46,4.471,4.88c0.183,0.153,0.305,0.368,0.343,0.603l2.055,12.518c0.018,0.104,0.018,0.211,0.002,0.315
					c-0.043,0.277-4.303,27.79-4.688,31.821c-0.207,2.176,0.116,3.037,0.424,3.375c0.178,0.195,0.511,0.419,1.515,0.419
					c1.182,0,1.749-0.648,1.906-0.867l5.34-20.486c0.12-0.459,0.546-0.777,1.021-0.746c0.476,0.026,0.866,0.382,0.936,0.853
					c0.088,0.597,2.161,14.661,2.357,18.38c0.11,2.116,0.67,2.522,0.759,2.573c0.004-0.004,0.089,0.002,0.134,0.009l1.467,0.195
					c0.379,0.05,0.695,0.312,0.816,0.675c0.304,0.909,0.674,1.008,1.39,1.008c0.166,0,0.333-0.007,0.499-0.014
					c0.19-0.008,0.379-0.016,0.563-0.016c0.271-0.112,0.899-1.222,1.221-2.235l5.67-18.185
					C43.533,68.208,43.921,67.924,44.357,67.924z"/>
			</g>
			<g>
				<path d="M33.158,89.384c-0.02,0-0.038,0-0.057,0c-0.553-0.005-0.996-0.458-0.99-1.01c0.006-0.549,0.452-0.99,1-0.99
					c0.055,0.005,0.103,0.001,0.149,0.001c0.668,0,0.724-0.108,1.183-1.864c0.074-0.284,0.154-0.592,0.248-0.926
					c0.706-2.533,2.343-15.413,2.359-15.542c0.083-1.399,0.826-2.877,2.287-2.877c0.553,0,1,0.448,1,1s-0.447,1-1,1
					c-0.093,0.085-0.271,0.65-0.297,1.064c-0.074,0.601-1.678,13.221-2.424,15.893c-0.09,0.323-0.167,0.621-0.239,0.895
					C35.889,87.901,35.501,89.384,33.158,89.384z"/>
			</g>
			<g>
				<path d="M28.259,34.67c-0.287,0-0.576-0.056-0.859-0.166c-1.421-0.553-2.4-2.356-2.278-4.195
					c0.113-1.663,1.132-2.823,2.478-2.823c0.287,0,0.576,0.056,0.859,0.166c1.421,0.551,2.4,2.354,2.278,4.194
					C30.623,33.51,29.604,34.67,28.259,34.67z M27.599,29.487c-0.175,0-0.439,0.333-0.481,0.957
					c-0.067,1.006,0.477,1.99,1.007,2.196c0.051,0.02,0.096,0.03,0.135,0.03c0.175,0,0.439-0.333,0.481-0.958
					c0.067-1.007-0.476-1.99-1.006-2.195C27.683,29.498,27.638,29.487,27.599,29.487z"/>
			</g>
			<g>
				<path d="M23.544,48.342c-0.219,0-0.433-0.072-0.609-0.207c-0.227-0.174-0.368-0.438-0.389-0.723l-0.21-3.001
					c-0.038-0.551,0.377-1.029,0.929-1.067c0.545-0.038,1.028,0.376,1.067,0.928l0.131,1.874l0.442-0.086l-0.183-2.315
					c-0.038-0.551,0.377-1.029,0.929-1.067c0.538-0.03,1.028,0.376,1.067,0.928l0.244,3.199c0.035,0.504-0.312,0.956-0.808,1.052
					l-2.421,0.469C23.671,48.336,23.607,48.342,23.544,48.342z"/>
			</g>
			<g>
				<path d="M33.08,54.179c-0.009,0-0.017,0-0.025,0l-2.693-0.069c-0.546-0.014-0.979-0.463-0.975-1.009l0.025-2.732
					c0.005-0.549,0.452-0.991,1-0.991c0.003,0,0.006,0,0.01,0c0.552,0.005,0.995,0.457,0.99,1.009l-0.017,1.749l0.694,0.018
					l0.021-2.163c0.006-0.549,0.452-0.99,1-0.99c0.003,0,0.007,0,0.01,0c0.553,0.005,0.996,0.458,0.99,1.01l-0.031,3.178
					c-0.003,0.268-0.112,0.523-0.306,0.71C33.588,54.078,33.339,54.179,33.08,54.179z"/>
			</g>
			<g>
				<path d="M34.4,60.846c-0.009,0-0.018,0-0.025,0l-2.695-0.069c-0.546-0.014-0.98-0.463-0.975-1.009l0.027-2.732
					c0.006-0.552,0.475-1.03,1.01-0.99c0.553,0.005,0.996,0.458,0.99,1.01l-0.018,1.749l0.695,0.018l0.021-2.163
					c0.006-0.549,0.452-0.99,1-0.99c0.003,0,0.007,0,0.01,0c0.553,0.005,0.996,0.458,0.99,1.01L35.4,59.856
					c-0.003,0.268-0.112,0.524-0.306,0.71C34.908,60.746,34.659,60.846,34.4,60.846z"/>
			</g>
			<g>
				<path d="M40.189,61.832c-0.106,0-0.213-0.017-0.315-0.051l-2.439-0.812c-0.422-0.14-0.701-0.542-0.684-0.987L36.864,57
					c0.021-0.552,0.497-0.987,1.037-0.961c0.552,0.021,0.982,0.485,0.961,1.038l-0.085,2.232l0.463,0.154l0.081-2.137
					c0.021-0.552,0.438-0.976,1.037-0.962c0.552,0.021,0.982,0.485,0.961,1.037l-0.131,3.469c-0.012,0.314-0.171,0.605-0.43,0.784
					C40.59,61.771,40.391,61.832,40.189,61.832z"/>
			</g>
			<g>
				<path d="M45.639,63.417c-0.106,0-0.213-0.017-0.315-0.051l-2.441-0.812c-0.422-0.14-0.701-0.542-0.684-0.987l0.113-2.982
					c0.021-0.552,0.497-0.995,1.037-0.961c0.552,0.021,0.982,0.485,0.961,1.038l-0.085,2.232l0.464,0.154l0.08-2.136
					c0.02-0.552,0.491-0.982,1.036-0.962c0.552,0.021,0.982,0.485,0.962,1.037l-0.129,3.469c-0.012,0.314-0.171,0.605-0.429,0.785
					C46.039,63.356,45.84,63.417,45.639,63.417z"/>
			</g>
			<g>
				<path d="M28.338,60.7c-0.009,0-0.018,0-0.025,0l-2.695-0.069c-0.546-0.014-0.98-0.463-0.975-1.009l0.027-2.732
					c0.006-0.552,0.479-0.975,1.01-0.99c0.553,0.005,0.996,0.458,0.99,1.01l-0.018,1.749l0.695,0.018l0.021-2.163
					c0.006-0.549,0.452-0.99,1-0.99c0.003,0,0.007,0,0.01,0c0.553,0.005,0.996,0.458,0.99,1.01l-0.031,3.179
					c-0.003,0.268-0.112,0.524-0.306,0.71C28.846,60.6,28.597,60.7,28.338,60.7z"/>
			</g>
			<g>
				<path d="M31.613,47.854c-0.009,0-0.017,0-0.025,0l-2.693-0.069c-0.546-0.014-0.979-0.463-0.975-1.009l0.025-2.732
					c0.005-0.549,0.452-0.991,1-0.991c0.003,0,0.006,0,0.01,0c0.552,0.005,0.995,0.457,0.99,1.009l-0.017,1.749l0.694,0.018
					l0.021-2.163c0.006-0.549,0.452-0.99,1-0.99c0.003,0,0.007,0,0.01,0c0.553,0.005,0.996,0.458,0.99,1.01l-0.031,3.178
					c-0.003,0.268-0.112,0.523-0.306,0.71C32.121,47.753,31.872,47.854,31.613,47.854z"/>
			</g>
			<g>
				<path d="M38.76,55.153c-0.071,0-0.143-0.008-0.214-0.023l-2.711-0.593c-0.485-0.106-0.819-0.553-0.783-1.048l0.191-2.676
					c0.039-0.551,0.527-0.96,1.068-0.926c0.551,0.04,0.966,0.518,0.926,1.069l-0.129,1.812l0.736,0.161l0.141-1.959
					c0.039-0.552,0.526-0.954,1.068-0.926c0.551,0.04,0.966,0.518,0.926,1.069l-0.223,3.112c-0.021,0.29-0.166,0.556-0.398,0.729
					C39.185,55.084,38.974,55.153,38.76,55.153z"/>
			</g>
			<g>
				<path d="M24.816,54.473c-0.252,0-0.496-0.096-0.682-0.269c-0.197-0.184-0.312-0.44-0.318-0.71l-0.059-2.777
					c-0.012-0.552,0.427-1.009,0.979-1.021c0.008,0,0.015,0,0.021,0c0.543,0,0.988,0.434,1,0.979l0.037,1.749l0.651-0.032
					l-0.048-2.259c-0.012-0.552,0.427-1.009,0.979-1.021c0.008,0,0.015,0,0.021,0c0.543,0,0.988,0.434,1,0.979l0.068,3.231
					c0.011,0.541-0.41,0.993-0.95,1.02l-2.65,0.131C24.85,54.472,24.833,54.473,24.816,54.473z"/>
			</g>
		</g>
		<g>
			<g>
				<path d="M80.292,82.256c-0.412,0-0.803-0.06-1.151-0.202c-0.548-0.224-0.954-0.628-1.174-1.168
					c-0.434-1.068-0.192-1.975,0.184-2.591c-2.529-4.159-17.252-28.444-21.693-37.386l-0.049-0.097
					c-1.241-2.496-3.118-6.267,2.4-9.444c0.479-0.274,1.091-0.11,1.365,0.368c0.276,0.479,0.111,1.09-0.367,1.366
					c-3.888,2.238-2.881,4.26-1.607,6.82l0.049,0.098C63.05,49.685,80.057,77.58,80.228,77.86c0.267,0.436,0.161,1.003-0.244,1.314
					c-0.111,0.096-0.386,0.41-0.163,0.959c0.013,0.031,0.019,0.045,0.077,0.069c0.371,0.153,1.408,0.023,2.874-0.612
					c0.507-0.22,1.096,0.014,1.315,0.52c0.219,0.507-0.014,1.096-0.521,1.315C82.609,81.84,81.379,82.256,80.292,82.256z"/>
			</g>
			<g>
				<path d="M83.26,81.459c-0.349,0-0.688-0.183-0.871-0.507c-0.272-0.481-0.103-1.091,0.378-1.363
					c1.39-0.787,2.115-1.533,2.219-1.925c0.016-0.061,0.008-0.074-0.009-0.103c-0.304-0.508-0.72-0.48-0.885-0.443
					c-0.481,0.105-0.994-0.145-1.174-0.602C82.797,76.21,70.773,45.833,65.95,36.178l-0.051-0.101
					c-1.277-2.557-2.287-4.576-6.411-2.822c-0.508,0.215-1.096-0.02-1.312-0.529c-0.217-0.508,0.021-1.095,0.528-1.312
					c5.854-2.489,7.738,1.276,8.983,3.769l0.051,0.101C72.2,44.215,82.719,70.596,84.516,75.12c0.718,0.072,1.586,0.425,2.177,1.415
					c0.3,0.499,0.378,1.067,0.227,1.64c-0.349,1.324-1.915,2.446-3.168,3.155C83.596,81.417,83.427,81.459,83.26,81.459z"/>
			</g>
		</g>
	</g>
</g>
</svg>
