<?xml version="1.0" encoding="utf-8"?>
<!-- Generator: Adobe Illustrator 16.0.0, SVG Export Plug-In . SVG Version: 6.00 Build 0)  -->
<!DOCTYPE svg PUBLIC "-//W3C//DTD SVG 1.1//EN" "http://www.w3.org/Graphics/SVG/1.1/DTD/svg11.dtd">
<svg version="1.1" id="Layer_1" xmlns="http://www.w3.org/2000/svg" xmlns:xlink="http://www.w3.org/1999/xlink" x="0px" y="0px"
	 width="100px" height="100px" viewBox="0 0 100 100" enable-background="new 0 0 100 100" xml:space="preserve">
<g>
	<g>
		<g>
			<path d="M80.107,80.771H19.893c-1.103,0-2-0.897-2-2V27.708c0-1.103,0.897-2,2-2h25.116v2H19.893v51.062h60.215V27.708H50.516v-2
				h29.592c1.103,0,2,0.897,2,2v51.062C82.107,79.874,81.21,80.771,80.107,80.771z"/>
		</g>
		<g>
			<path d="M44.533,27.672c-0.102,0-0.204-0.002-0.306-0.008c-1.473-0.073-2.762-0.694-3.536-1.704
				c-0.645-0.841-0.876-1.878-0.651-2.919c0.066-0.297,0.165-0.583,0.295-0.857l1.807,0.858c-0.066,0.138-0.116,0.282-0.148,0.428
				c-0.099,0.458-0.001,0.9,0.285,1.273c0.416,0.543,1.163,0.879,2.049,0.924c1.677,0.073,3.348-0.938,3.627-2.231
				c0.046-0.212,0.049-0.425,0.009-0.633l1.964-0.379c0.092,0.477,0.085,0.96-0.019,1.437
				C49.437,26.042,47.109,27.672,44.533,27.672z"/>
		</g>
		<g>
			<path d="M47.2,33.691c-0.106,0-0.212-0.003-0.32-0.008c-1.551-0.077-2.907-0.729-3.72-1.79c-0.675-0.881-0.918-1.966-0.682-3.057
				c0.151-0.699,0.484-1.352,0.99-1.943l1.52,1.3c-0.288,0.337-0.475,0.695-0.555,1.066c-0.111,0.513-0.002,1.003,0.314,1.417
				c0.455,0.594,1.269,0.961,2.232,1.01c1.827,0.095,3.63-1.022,3.934-2.43c0.106-0.489,0.013-0.958-0.269-1.357
				c-0.391-0.552-1.104-0.932-1.959-1.042l0.255-1.983c1.41,0.181,2.626,0.864,3.338,1.873c0.604,0.857,0.814,1.898,0.59,2.933
				C52.372,31.975,49.917,33.691,47.2,33.691z"/>
		</g>
		<g>
			<path d="M45.505,27.592l-0.322-1.974c0.535-0.087,1.054-0.281,1.501-0.56l1.059,1.696C47.072,27.173,46.299,27.463,45.505,27.592
				z"/>
		</g>
		<g>
			<path d="M46.41,30.213c-1.404,0-2.554-0.724-2.936-1.958l1.911-0.591c0.195,0.633,1.173,0.605,1.745,0.439
				c0.455-0.133,1.273-0.541,1.111-1.134l1.929-0.529c0.42,1.535-0.623,3.042-2.48,3.584C47.25,30.151,46.819,30.213,46.41,30.213z"
				/>
		</g>
		<g>
			<path d="M44.564,27.672l-0.013-2c0.981-0.006,1.97-0.381,2.645-1.002l1.354,1.472C47.503,27.104,46.051,27.662,44.564,27.672z"/>
		</g>
		<g>
			<path d="M44.527,27.672C44.527,27.672,44.527,27.672,44.527,27.672c-0.1,0-0.2-0.002-0.3-0.008
				c-1.473-0.073-2.762-0.694-3.536-1.704c-0.645-0.841-0.876-1.878-0.651-2.919c0.489-2.255,2.963-3.952,5.681-3.805
				c1.476,0.073,2.766,0.695,3.54,1.706c0.645,0.842,0.875,1.878,0.648,2.918C49.439,26.033,47.125,27.672,44.527,27.672z
				 M45.426,21.229c-1.625,0-3.164,1.003-3.431,2.236c-0.101,0.463-0.003,0.906,0.283,1.278c0.416,0.543,1.163,0.879,2.049,0.924
				l0.2,0.005c1.623,0,3.161-1.003,3.427-2.236c0.101-0.464,0.004-0.906-0.281-1.278c-0.416-0.543-1.164-0.88-2.05-0.924
				L45.426,21.229z"/>
		</g>
		<g>
			<rect x="47.758" y="24.798" transform="matrix(0.4024 0.9155 -0.9155 0.4024 52.783 -29.2578)" width="2.085" height="2"/>
		</g>
		<g>
			<rect x="47.758" y="24.798" transform="matrix(0.4024 0.9155 -0.9155 0.4024 52.783 -29.2578)" width="2.085" height="2"/>
		</g>
		<g>
			<rect x="43.448" y="26.322" transform="matrix(0.3576 0.9339 -0.9339 0.3576 53.8986 -23.7092)" width="1.469" height="2"/>
		</g>
	</g>
	<g>
		<line x1="25.807" y1="36.904" x2="34.807" y2="36.904"/>
		<path d="M34.807,37.904h-9c-0.552,0-1-0.448-1-1s0.448-1,1-1h9c0.552,0,1,0.448,1,1S35.359,37.904,34.807,37.904z"/>
	</g>
	<g>
		<line x1="25.754" y1="43.67" x2="74.246" y2="43.67"/>
		<path d="M74.246,44.67H25.754c-0.552,0-1-0.448-1-1s0.448-1,1-1h48.492c0.553,0,1,0.448,1,1S74.799,44.67,74.246,44.67z"/>
	</g>
	<g>
		<line x1="25.754" y1="50.438" x2="74.246" y2="50.438"/>
		<path d="M74.246,51.438H25.754c-0.552,0-1-0.448-1-1s0.448-1,1-1h48.492c0.553,0,1,0.448,1,1S74.799,51.438,74.246,51.438z"/>
	</g>
	<g>
		<line x1="25.754" y1="57.206" x2="74.246" y2="57.206"/>
		<path d="M74.246,58.206H25.754c-0.552,0-1-0.448-1-1s0.448-1,1-1h48.492c0.553,0,1,0.448,1,1S74.799,58.206,74.246,58.206z"/>
	</g>
	<g>
		<line x1="25.754" y1="63.973" x2="74.246" y2="63.973"/>
		<path d="M74.246,64.973H25.754c-0.552,0-1-0.448-1-1s0.448-1,1-1h48.492c0.553,0,1,0.448,1,1S74.799,64.973,74.246,64.973z"/>
	</g>
	<g>
		<line x1="25.754" y1="70.741" x2="74.246" y2="70.741"/>
		<path d="M74.246,71.741H25.754c-0.552,0-1-0.448-1-1s0.448-1,1-1h48.492c0.553,0,1,0.448,1,1S74.799,71.741,74.246,71.741z"/>
	</g>
</g>
</svg>
