<?xml version="1.0" encoding="utf-8"?>
<!-- Generator: Adobe Illustrator 16.0.0, SVG Export Plug-In . SVG Version: 6.00 Build 0)  -->
<!DOCTYPE svg PUBLIC "-//W3C//DTD SVG 1.1//EN" "http://www.w3.org/Graphics/SVG/1.1/DTD/svg11.dtd">
<svg version="1.1" id="Layer_1" xmlns="http://www.w3.org/2000/svg" xmlns:xlink="http://www.w3.org/1999/xlink" x="0px" y="0px"
	 width="100px" height="100px" viewBox="0 0 100 100" enable-background="new 0 0 100 100" xml:space="preserve">
<g display="none">
	<path display="inline" d="M30.81,58.754c-0.172,0.202-0.257,0.464-0.236,0.729c0.021,0.265,0.146,0.51,0.348,0.682
		c4.653,3.97,10.44,6.103,16.487,6.122v2.772c-2.231,0.412-3.992,2.173-4.404,4.404h-3.596c-0.266,0-0.52,0.105-0.707,0.293
		l-4.5,4.5c-0.286,0.286-0.372,0.716-0.217,1.09c0.154,0.374,0.52,0.617,0.924,0.617h36c0.404,0,0.77-0.243,0.924-0.617
		c0.155-0.374,0.069-0.804-0.217-1.09l-4.5-4.5c-0.188-0.188-0.441-0.293-0.707-0.293h-3.596c-0.412-2.231-2.173-3.992-4.404-4.404
		v-5.19c3.256-1.527,6.179-3.739,8.581-6.556c4.436-5.198,6.583-11.812,6.047-18.624c-0.539-6.811-3.698-13.006-8.896-17.443
		c-0.201-0.172-0.464-0.256-0.729-0.236c-0.264,0.021-0.51,0.146-0.682,0.348l-2.571,3.013c-3.61-2.79-8.045-4.332-12.618-4.332
		c-6.062,0-11.795,2.643-15.729,7.25c-7.179,8.411-6.396,20.951,1.573,28.449L30.81,58.754z M37.322,77.963l2.5-2.5h26.172l2.5,2.5
		H37.322z M45.071,73.463c0.434-1.44,1.757-2.5,3.337-2.5h9c1.58,0,2.903,1.06,3.337,2.5H45.071z M56.408,68.963h-2.5v-3.483
		c0.85-0.217,1.684-0.477,2.5-0.777V68.963z M51.908,68.963h-2.5v-2.748c0.046-0.004,0.092-0.002,0.138-0.006
		c0.797-0.063,1.584-0.165,2.362-0.299V68.963z M63.588,23.432c4.348,4.033,6.984,9.47,7.454,15.414
		c0.495,6.279-1.484,12.377-5.574,17.168c-3.662,4.294-8.634,7.062-14.147,7.953c-0.632,0.102-1.268,0.194-1.912,0.245v-0.063h-1h-1
		v0.13c-5.242-0.021-10.27-1.752-14.414-5.002l1.908-2.236c3.61,2.79,8.046,4.333,12.619,4.333c6.062,0,11.796-2.643,15.729-7.25
		c3.584-4.199,5.319-9.543,4.884-15.046c-0.408-5.169-2.704-9.881-6.457-13.406L63.588,23.432z M40.779,23.328l2.298,1.962
		c-2.186,1.311-4.267,3.021-6.133,5.063l-2.921-2.493C35.936,25.85,38.24,24.314,40.779,23.328z M32.588,42.193l2.714,2.316
		c-1.265,2.402-2.137,4.709-2.461,6.708C31.819,48.636,31.748,45.479,32.588,42.193z M54.285,58.081l-2.3-1.962
		c2.186-1.312,4.267-3.021,6.132-5.062l2.922,2.493C59.128,55.56,56.823,57.096,54.285,58.081z M62.983,36.365
		c-0.09,0.943-0.271,1.896-0.512,2.849l-2.711-2.314c1.265-2.401,2.137-4.708,2.461-6.706
		C62.926,31.976,63.203,34.062,62.983,36.365z M58.213,35.579l-2.888-2.466l4.878-5.716C60.727,28.995,60.058,31.955,58.213,35.579z
		 M57.23,37.37c-1.179,2.027-2.691,4.206-4.527,6.435l-3.762-3.211l5.085-5.959L57.23,37.37z M51.407,45.329
		c-1.848,2.086-3.773,3.946-5.646,5.478l-3.202-2.734l5.084-5.957L51.407,45.329z M44.141,52.054
		c-2.832,2.063-5.437,3.283-7.299,3.283c-0.162,0-0.29-0.037-0.434-0.058l4.852-5.685L44.141,52.054z M45.697,53.382l2.704,2.308
		c-2.165,0.938-4.365,1.453-6.451,1.453c-0.878,0-1.718-0.098-2.516-0.276C41.312,56.249,43.461,55.046,45.697,53.382z
		 M47.297,52.116c1.881-1.557,3.791-3.408,5.632-5.489l3.667,3.131c-1.876,2.038-4.015,3.723-6.244,4.967L47.297,52.116z
		 M54.226,45.104c1.692-2.059,3.247-4.252,4.535-6.427l3.076,2.625c-0.879,2.4-2.226,4.752-3.95,6.927L54.226,45.104z
		 M53.804,31.814l-2.882-2.459c2.832-2.062,5.437-3.282,7.298-3.282c0.163,0,0.291,0.037,0.435,0.058L53.804,31.814z M52.505,33.337
		l-5.085,5.958l-3.766-3.215c1.848-2.086,3.774-3.947,5.647-5.478L52.505,33.337z M46.121,40.816l-5.084,5.958l-3.205-2.735
		c1.179-2.027,2.691-4.206,4.526-6.435L46.121,40.816z M39.738,48.296l-4.879,5.717c-0.523-1.599,0.146-4.559,1.99-8.183
		L39.738,48.296z M50.096,57.137l1.948,1.662c-1.466,0.365-2.979,0.574-4.522,0.574c-1.212,0-2.412-0.129-3.588-0.36
		C45.988,58.758,48.069,58.116,50.096,57.137z M59.407,49.527c1.715-2.153,3.074-4.476,4.029-6.86l2.344,2.001
		c-0.574,2.66-1.749,5.16-3.438,7.364L59.407,49.527z M66.114,42.322l-1.967-1.679c0.408-1.363,0.698-2.732,0.827-4.09
		c0.076-0.802,0.082-1.575,0.056-2.333c0.589,1.594,0.974,3.273,1.111,5.014C66.224,40.273,66.2,41.304,66.114,42.322z
		 M49.366,28.027l-2.704-2.309c2.164-0.937,4.364-1.452,6.45-1.452c0.879,0,1.719,0.098,2.517,0.276
		C53.751,25.16,51.603,26.363,49.366,28.027z M47.767,29.292c-1.882,1.557-3.793,3.409-5.634,5.49l-3.667-3.13
		c1.877-2.039,4.016-3.724,6.245-4.968L47.767,29.292z M40.836,36.306c-1.692,2.059-3.246,4.252-4.534,6.427l-3.075-2.624
		c0.866-2.355,2.198-4.716,3.949-6.927L40.836,36.306z M51.125,22.397c-2.053,0.255-4.133,0.896-6.158,1.875l-1.946-1.662
		c1.465-0.364,2.978-0.573,4.52-0.573C48.751,22.037,49.949,22.166,51.125,22.397z M35.656,31.884
		c-1.739,2.187-3.082,4.517-4.018,6.869l-2.346-2.002c0.562-2.614,1.713-5.13,3.43-7.371L35.656,31.884z M28.958,39.095l1.976,1.687
		c-0.658,2.211-0.955,4.398-0.876,6.459C29.089,44.636,28.723,41.85,28.958,39.095z"/>
</g>
<g display="none">
	<path display="inline" d="M48.589,30.714c0-3.21-2.611-5.821-5.821-5.821s-5.822,2.611-5.822,5.821s2.612,5.821,5.822,5.821
		S48.589,33.924,48.589,30.714z M38.945,30.714c0-2.107,1.715-3.821,3.822-3.821s3.821,1.714,3.821,3.821s-1.714,3.821-3.821,3.821
		S38.945,32.821,38.945,30.714z"/>
	<path display="inline" d="M77.519,83.75v-9.644c0-0.553-0.447-1-1-1h-9.644h-3.821v-2.821h3.821c0.553,0,1-0.447,1-1v-4.821
		c0-0.553-0.447-1-1-1H47.589c-0.553,0-1,0.447-1,1v4.821c0,0.553,0.447,1,1,1h3.821v2.821h-7.643V53.491l2.821-4.703V50
		c0,0.553,0.447,1,1,1h3.821v3.82c0,0.553,0.447,1,1,1h9.644c0.553,0,1-0.447,1-1V51h3.821c0.553,0,1-0.447,1-1v-4.822
		c0-0.266-0.105-0.52-0.293-0.707l-4.528-4.528v-14.05c0-0.553-0.447-1-1-1H52.41c-0.232,0-0.438,0.092-0.606,0.225
		c-1.88-3.023-5.222-5.047-9.036-5.047c-1.367,0-2.671,0.269-3.873,0.74c-0.044-0.163-0.114-0.319-0.242-0.447l-4.821-4.82
		c-0.391-0.391-1.023-0.391-1.414,0l-4.821,4.82c-0.188,0.188-0.293,0.441-0.293,0.707c0,0.265,0.105,0.52,0.293,0.707l4.821,4.822
		c0.128,0.128,0.284,0.198,0.447,0.242c-0.472,1.202-0.74,2.505-0.74,3.872c0,3.815,2.025,7.158,5.05,9.037
		c-0.041,0.053-0.092,0.096-0.123,0.158L22.587,68.838c-0.069,0.139-0.105,0.292-0.105,0.447V83.75c0,0.553,0.447,1,1,1h53.037
		C77.071,84.75,77.519,84.303,77.519,83.75z M48.589,68.285v-2.821h17.286v2.821h-3.821c-0.553,0-1,0.447-1,1v3.821H53.41v-3.821
		c0-0.553-0.447-1-1-1H48.589z M61.054,53.82H53.41V51h7.644V53.82z M29.717,21.07l3.407-3.406l4.026,4.025
		c-1.38,0.862-2.546,2.028-3.407,3.408L29.717,21.07z M34.124,30.714c0-4.766,3.878-8.644,8.644-8.644s8.643,3.878,8.643,8.644
		s-3.877,8.643-8.643,8.643S34.124,35.479,34.124,30.714z M75.519,82.75H24.481V69.521L38.84,40.804
		c0.03-0.061,0.034-0.126,0.051-0.188c1.203,0.473,2.508,0.741,3.877,0.741c5.868,0,10.643-4.774,10.643-10.643
		c0-1.348-0.262-2.634-0.722-3.821h8.365v13.464c0,0.266,0.105,0.52,0.293,0.707l4.528,4.528V49h-3.821H52.41h-3.821v-3.822
		c0-0.449-0.3-0.844-0.733-0.964c-0.43-0.119-0.894,0.063-1.124,0.449l-4.821,8.036c-0.094,0.155-0.143,0.333-0.143,0.515v20.893
		c0,0.553,0.447,1,1,1h9.643h9.644h4.821h8.644V82.75z"/>
	<path display="inline" d="M33.124,68.285c-3.21,0-5.821,2.611-5.821,5.821s2.611,5.821,5.821,5.821s5.821-2.611,5.821-5.821
		S36.334,68.285,33.124,68.285z M33.124,77.928c-2.107,0-3.821-1.714-3.821-3.821s1.714-3.821,3.821-3.821s3.821,1.714,3.821,3.821
		S35.231,77.928,33.124,77.928z"/>
	<path display="inline" d="M35.535,58.643c-1.881,0-3.411,1.53-3.411,3.41c0,1.881,1.53,3.411,3.411,3.411
		c1.88,0,3.41-1.53,3.41-3.411C38.945,60.173,37.415,58.643,35.535,58.643z M35.535,63.464c-0.778,0-1.411-0.633-1.411-1.411
		c0-0.777,0.633-1.41,1.411-1.41c0.777,0,1.41,0.633,1.41,1.41C36.945,62.831,36.312,63.464,35.535,63.464z"/>
</g>
<g display="none">
	<path display="inline" d="M58,68c0,3.032,2.468,5.5,5.5,5.5S69,71.032,69,68V45.5v-8h3.5c0.553,0,1-0.447,1-1s-0.447-1-1-1H69v-8
		c0-0.553-0.447-1-1-1h-9c-0.553,0-1,0.447-1,1v8h-2.5v-8c0-0.553-0.447-1-1-1H51v-2.596c2.556-0.473,4.5-2.714,4.5-5.404
		c0-3.032-2.468-5.5-5.5-5.5s-5.5,2.468-5.5,5.5c0,2.69,1.944,4.932,4.5,5.404V26.5h-3.5c-0.553,0-1,0.447-1,1v8H42v-8
		c0-0.553-0.447-1-1-1h-9c-0.553,0-1,0.447-1,1v8h-3.5c-0.553,0-1,0.447-1,1s0.447,1,1,1H31V59v9c0,3.032,2.468,5.5,5.5,5.5
		S42,71.032,42,68v-9V37.5h2.5V50v18c0,2.69,1.944,4.932,4.5,5.404V76H27.5c-0.553,0-1,0.447-1,1s0.447,1,1,1H49v2.5H32
		c-0.553,0-1,0.447-1,1V86c0,0.553,0.447,1,1,1h36c0.553,0,1-0.447,1-1v-4.5c0-0.553-0.447-1-1-1H51V78h21.5c0.553,0,1-0.447,1-1
		s-0.447-1-1-1H51v-2.596c2.556-0.473,4.5-2.714,4.5-5.404V50V37.5H58v8V68z M46.5,18.5c0-1.93,1.57-3.5,3.5-3.5s3.5,1.57,3.5,3.5
		S51.93,22,50,22S46.5,20.43,46.5,18.5z M33,28.5h7v8V58h-7V36.5V28.5z M40,68c0,1.93-1.57,3.5-3.5,3.5S33,69.93,33,68v-8h7V68z
		 M67,82.5V85H33v-2.5h17H67z M46.5,28.5h7v8V49h-7V36.5V28.5z M53.5,68c0,1.93-1.57,3.5-3.5,3.5s-3.5-1.57-3.5-3.5V51h7V68z M67,68
		c0,1.93-1.57,3.5-3.5,3.5S60,69.93,60,68V46.5h7V68z M60,28.5h7v8v8h-7v-8V28.5z"/>
</g>
<g display="none">
	<path display="inline" d="M50.001,15.25c-12.516,0-22.697,10.181-22.697,22.695c0,8.45,4.603,16.066,12.055,20.026v16.134
		c0,5.869,4.774,10.645,10.643,10.645s10.643-4.775,10.643-10.645V57.972c7.451-3.96,12.053-11.577,12.053-20.026
		C72.696,25.431,62.516,15.25,50.001,15.25z M41.358,60.643h17.285v3.223H41.358V60.643z M41.358,65.865h17.285v3.221H41.358V65.865
		z M41.358,74.105v-3.02h17.285v3.02c0,0.068-0.009,0.135-0.01,0.203H41.368C41.367,74.24,41.358,74.174,41.358,74.105z
		 M50.001,82.75c-4.003,0-7.369-2.74-8.348-6.441h16.695C57.37,80.01,54.004,82.75,50.001,82.75z M59.198,56.466
		c-0.34,0.169-0.555,0.516-0.555,0.896v1.281h-7.643V46.178h8.643c3.209,0,5.82-2.612,5.82-5.822c0-3.209-2.611-5.82-5.82-5.82
		c-3.21,0-5.822,2.611-5.822,5.82c0,1.463,0.547,2.798,1.441,3.822h-5.262h-5.264c0.895-1.024,1.441-2.359,1.441-3.822
		c0-3.209-2.611-5.82-5.82-5.82c-3.21,0-5.822,2.611-5.822,5.82c0,3.21,2.612,5.822,5.822,5.822h8.643v12.465h-7.643v-1.281
		c0-0.38-0.215-0.727-0.555-0.896c-7.094-3.53-11.5-10.627-11.5-18.521c0-11.411,9.285-20.695,20.697-20.695
		c11.411,0,20.695,9.284,20.695,20.695C70.696,45.839,66.29,52.936,59.198,56.466z M55.821,40.355c0-2.106,1.715-3.82,3.822-3.82
		c2.106,0,3.82,1.714,3.82,3.82c0,2.107-1.714,3.822-3.82,3.822C57.536,44.178,55.821,42.463,55.821,40.355z M40.358,44.178
		c-2.107,0-3.822-1.715-3.822-3.822c0-2.106,1.715-3.82,3.822-3.82c2.106,0,3.82,1.714,3.82,3.82
		C44.179,42.463,42.465,44.178,40.358,44.178z"/>
</g>
<g display="none">
	<path display="inline" d="M72.5,51c0.553,0,1-0.447,1-1v-9c0-0.553-0.447-1-1-1h-17v-3.5c0-0.075-0.027-0.143-0.043-0.213h5.006
		c0.266,0,0.52-0.105,0.707-0.293l3.287-3.287c0.391-0.391,0.391-1.023,0-1.414l-3.287-3.287c-0.188-0.188-0.441-0.293-0.707-0.293
		h-5.006c0.016-0.07,0.043-0.138,0.043-0.213v-9c0-0.347-0.18-0.668-0.475-0.851c-0.295-0.184-0.663-0.198-0.973-0.044l-9,4.5
		C44.714,22.275,44.5,22.621,44.5,23v4.5c0,0.075,0.027,0.143,0.043,0.213H40.75c-0.553,0-1,0.447-1,1v6.574c0,0.553,0.447,1,1,1
		h3.793c-0.016,0.07-0.043,0.138-0.043,0.213V40H32c-0.266,0-0.52,0.105-0.707,0.293l-4.5,4.5c-0.391,0.391-0.391,1.023,0,1.414
		l4.5,4.5C31.48,50.895,31.734,51,32,51h12.5v2.5h-8c-0.553,0-1,0.447-1,1v9c0,0.553,0.447,1,1,1h8v16H42v-8c0-0.553-0.447-1-1-1
		s-1,0.447-1,1v8h-3.5c-0.553,0-1,0.447-1,1s0.447,1,1,1H41h4.5h9H59h4.5c0.553,0,1-0.447,1-1s-0.447-1-1-1H60V77
		c0-0.553-0.447-1-1-1s-1,0.447-1,1v3.5h-2.5v-16h8c0.266,0,0.52-0.105,0.707-0.293l4.5-4.5c0.391-0.391,0.391-1.023,0-1.414
		l-4.5-4.5C64.02,53.605,63.766,53.5,63.5,53.5h-8V51H72.5z M46.5,27.5v-3.882l7-3.5V27.5c0,0.075,0.027,0.143,0.043,0.213h-7.086
		C46.473,27.643,46.5,27.575,46.5,27.5z M41.75,34.287v-4.574h18.299L62.336,32l-2.287,2.287H41.75z M46.457,36.287h7.086
		c-0.016,0.07-0.043,0.138-0.043,0.213V40h-7v-3.5C46.5,36.425,46.473,36.357,46.457,36.287z M32.414,49l-3.5-3.5l3.5-3.5H45.5h9h17
		v7h-17h-9H32.414z M53.5,80.5h-7v-16h7V80.5z M63.086,55.5l3.5,3.5l-3.5,3.5H54.5h-9h-8v-7h8h9H63.086z M53.5,53.5h-7V51h7V53.5z"
		/>
</g>
<g display="none">
	<path display="inline" d="M77.818,25.864c0.553,0,1-0.447,1-1s-0.447-1-1-1h-5.363V18.5c0-0.553-0.447-1-1-1s-1,0.447-1,1v5.95
		l-1.182,1.182v-3.949c0-0.553-0.447-1-1-1s-1,0.447-1,1v5.949l-2.206,2.206c-4.187-3.847-9.766-6.2-15.886-6.2
		c-12.958,0-23.5,10.542-23.5,23.5c0,5.049,1.605,9.727,4.325,13.561l-8.701,15.819c-0.171,0.311-0.165,0.688,0.016,0.991
		c0.18,0.305,0.507,0.491,0.86,0.491h3.5v3.5c0,0.553,0.447,1,1,1h4.5c0.553,0,1-0.447,1-1V78h11.5v3.5c0,0.553,0.447,1,1,1h9
		c0.553,0,1-0.447,1-1V78h11.5v3.5c0,0.553,0.447,1,1,1h4.5c0.553,0,1-0.447,1-1V78h3.5c0.354,0,0.681-0.187,0.86-0.491
		c0.181-0.304,0.187-0.681,0.016-0.991l-8.701-15.819c2.72-3.834,4.325-8.512,4.325-13.561c0-6.12-2.354-11.699-6.2-15.886
		l2.206-2.206h5.949c0.553,0,1-0.447,1-1s-0.447-1-1-1h-3.949l1.182-1.182H77.818z M30.182,80.5h-2.5V78h2.5V80.5z M52.682,80.5h-7
		V78h7V80.5z M70.682,80.5h-2.5V78h2.5V80.5z M74.49,76h-2.809h-4.5h-13.5h-9h-13.5h-4.5h-2.809l7.473-13.586
		c4.313,5.028,10.707,8.224,17.836,8.224s13.522-3.195,17.836-8.224L74.49,76z M70.682,47.138c0,11.855-9.645,21.5-21.5,21.5
		s-21.5-9.645-21.5-21.5s9.645-21.5,21.5-21.5c5.568,0,10.633,2.146,14.455,5.631l-1.768,1.767
		c-3.367-3.033-7.809-4.897-12.688-4.897c-10.477,0-19,8.523-19,19s8.523,19,19,19s19-8.523,19-19c0-4.879-1.864-9.319-4.898-12.688
		l1.768-1.767C68.536,36.505,70.682,41.569,70.682,47.138z M52.682,47.138c0,1.93-1.57,3.5-3.5,3.5s-3.5-1.57-3.5-3.5
		s1.57-3.5,3.5-3.5c0.601,0,1.158,0.166,1.652,0.434l-2.359,2.359c-0.391,0.391-0.391,1.023,0,1.414
		c0.195,0.195,0.451,0.293,0.707,0.293s0.512-0.098,0.707-0.293l2.359-2.359C52.516,45.98,52.682,46.537,52.682,47.138z
		 M52.296,42.609c-0.887-0.611-1.959-0.972-3.114-0.972c-3.032,0-5.5,2.468-5.5,5.5s2.468,5.5,5.5,5.5s5.5-2.468,5.5-5.5
		c0-1.155-0.36-2.228-0.972-3.114l1.783-1.783c1.054,1.355,1.688,3.052,1.688,4.897c0,4.411-3.589,8-8,8s-8-3.589-8-8s3.589-8,8-8
		c1.846,0,3.543,0.635,4.897,1.688L52.296,42.609z M55.506,39.399c-1.725-1.412-3.927-2.262-6.324-2.262c-5.514,0-10,4.486-10,10
		s4.486,10,10,10s10-4.486,10-10c0-2.397-0.85-4.6-2.262-6.324l1.77-1.77c1.861,2.183,2.992,5.007,2.992,8.094
		c0,6.893-5.607,12.5-12.5,12.5s-12.5-5.607-12.5-12.5s5.607-12.5,12.5-12.5c3.087,0,5.911,1.131,8.094,2.992L55.506,39.399z
		 M49.182,32.638c-7.995,0-14.5,6.505-14.5,14.5s6.505,14.5,14.5,14.5s14.5-6.505,14.5-14.5c0-3.639-1.357-6.959-3.578-9.508
		l1.767-1.767c2.673,3.004,4.312,6.946,4.312,11.274c0,9.374-7.626,17-17,17s-17-7.626-17-17s7.626-17,17-17
		c4.328,0,8.271,1.639,11.274,4.312l-1.767,1.767C56.141,33.994,52.82,32.638,49.182,32.638z"/>
</g>
<g display="none">
	<path display="inline" d="M73.5,54.5v-18c0-2.69-1.944-4.932-4.5-5.404V25.25c0-1.792-1.458-3.25-3.25-3.25H32
		c-3.032,0-5.5,2.468-5.5,5.5V41c0,2.69,1.944,4.932,4.5,5.404V59c0,1.328,0.474,2.548,1.261,3.5H32c-3.084,0-5.5,3.404-5.5,7.75
		S28.916,78,32,78h9h18h9c3.084,0,5.5-3.404,5.5-7.75S71.084,62.5,68,62.5c-0.094,0-0.186,0.013-0.278,0.02
		c0.61-0.731,1.03-1.624,1.195-2.603C71.514,59.479,73.5,57.219,73.5,54.5z M67,59c0,0.307-0.053,0.6-0.127,0.883
		c-0.395,1.501-1.75,2.617-3.373,2.617h-0.261c0.787-0.952,1.261-2.172,1.261-3.5v-0.261V54.5V41v-4.5v-4.239V25.25
		c0-0.689,0.561-1.25,1.25-1.25S67,24.561,67,25.25v5.846v2.067v24.674V59z M68,76c-0.115,0-0.229-0.011-0.341-0.029
		c-1.745-0.292-3.159-2.792-3.159-5.721c0-0.934,0.146-1.822,0.398-2.611C65.489,65.794,66.671,64.5,68,64.5
		c1.897,0,3.5,2.633,3.5,5.75S69.897,76,68,76z M63.992,64.903c-0.927,1.381-1.492,3.252-1.492,5.347
		c0,2.307,0.686,4.342,1.785,5.75H59c-1.897,0-3.5-2.633-3.5-5.75s1.603-5.75,3.5-5.75h4.5h0.027c0.003,0,0.006-0.002,0.009-0.002
		c0.107-0.001,0.206-0.029,0.302-0.061l0.015,0.045c0.165-0.011,0.328-0.029,0.489-0.054C64.22,64.58,64.104,64.737,63.992,64.903z
		 M41,76c-1.897,0-3.5-2.633-3.5-5.75s1.603-5.75,3.5-5.75h14.285c-1.1,1.408-1.785,3.443-1.785,5.75s0.686,4.342,1.785,5.75H41z
		 M32,76c-1.897,0-3.5-2.633-3.5-5.75s1.603-5.75,3.5-5.75h4.5h0.785c-1.1,1.408-1.785,3.443-1.785,5.75s0.686,4.342,1.785,5.75H32z
		 M33,59V46.5h7V50c0,0.553,0.447,1,1,1h4.5c0.553,0,1-0.447,1-1v-3.5H59c1.328,0,2.548-0.474,3.5-1.261V54.5V59
		c0,1.93-1.57,3.5-3.5,3.5H41h-4.5C34.57,62.5,33,60.93,33,59z M28.5,27.5c0-1.93,1.57-3.5,3.5-3.5h30.5v1.25v0.643V36.5V41
		c0,1.93-1.57,3.5-3.5,3.5H46.5V41c0-0.553-0.447-1-1-1H41c-0.553,0-1,0.447-1,1v3.5h-6.444H32c-1.93,0-3.5-1.57-3.5-3.5V27.5z
		 M44.5,45.5v1V49H42v-2.5v-1v-1V42h2.5v2.5V45.5z M71.5,36.5v18c0,1.58-1.06,2.903-2.5,3.337V33.163
		C70.44,33.597,71.5,34.92,71.5,36.5z"/>
</g>
<g display="none">
	<path display="inline" d="M51,51.752h2c3.859,0,7-3.141,7-7c0-0.553-0.447-1-1-1h-3c-1.958,0-3.729,0.811-5,2.11V33.68
		c3.802-0.493,6.75-3.744,6.75-7.678v-6.75c0-0.369-0.203-0.708-0.528-0.882c-0.324-0.174-0.72-0.154-1.026,0.05l-2.621,1.747
		l-2.836-3.106c-0.379-0.416-1.098-0.416-1.477,0l-2.836,3.106l-2.621-1.747c-0.306-0.204-0.702-0.224-1.026-0.05
		c-0.325,0.174-0.528,0.513-0.528,0.882v6.75c0,3.934,2.948,7.185,6.75,7.678v16.683c-1.271-1.3-3.042-2.11-5-2.11h-3
		c-0.553,0-1,0.447-1,1c0,3.859,3.141,7,7,7h2v12.11c-1.271-1.3-3.042-2.11-5-2.11h-3c-0.553,0-1,0.447-1,1c0,3.859,3.141,7,7,7h2v8
		c0,0.553,0.447,1,1,1s1-0.447,1-1v-9v-3.5h2c3.859,0,7-3.141,7-7c0-0.553-0.447-1-1-1h-3c-1.958,0-3.729,0.811-5,2.11v-8.61V51.752
		z M56,45.752h1.899c-0.465,2.279-2.484,4-4.899,4h-1.899C51.565,47.473,53.585,45.752,56,45.752z M44.25,24.707V22.55v-1.43
		l0.812,0.541l0.841,0.561l0.842,0.562l1.453,0.969l1.248,0.832c0.336,0.225,0.773,0.225,1.109,0l1.248-0.832l1.453-0.969
		l0.842-0.562l0.841-0.561l0.812-0.541v1.43v2.155v1.297c0,2.829-2.055,5.182-4.75,5.657c-0.325,0.058-0.658,0.093-1,0.093
		s-0.675-0.035-1-0.093c-2.695-0.476-4.75-2.828-4.75-5.657V24.707z M50,19.218l1.892,2.071L50,22.55l-1.892-1.261L50,19.218z
		 M47,54.252c-2.415,0-4.435-1.721-4.899-4H44c2.415,0,4.435,1.721,4.899,4H47z M47,72.252c-2.415,0-4.435-1.721-4.899-4H44
		c2.415,0,4.435,1.721,4.899,4H47z M56,63.752h1.899c-0.465,2.279-2.484,4-4.899,4h-1.899C51.565,65.473,53.585,63.752,56,63.752z"
		/>
	<path display="inline" d="M71.25,56.252h1.25c3.032,0,5.5-2.468,5.5-5.5c0-0.553-0.447-1-1-1h-2.25c-1.328,0-2.548,0.474-3.5,1.261
		v-0.261V38.156c2.556-0.473,4.5-2.714,4.5-5.404v-4.5c0-0.553-0.447-1-1-1h-9c-0.553,0-1,0.447-1,1v4.5
		c0,2.69,1.944,4.932,4.5,5.404v8.356c-0.952-0.787-2.172-1.261-3.5-1.261H63.5c-0.553,0-1,0.447-1,1c0,3.032,2.468,5.5,5.5,5.5
		h1.25v3.5v0.261c-0.952-0.787-2.172-1.261-3.5-1.261H63.5c-0.553,0-1,0.447-1,1c0,3.032,2.468,5.5,5.5,5.5h1.25v3.5v4.5
		c0,0.553,0.447,1,1,1s1-0.447,1-1v-3.5h1.25c3.032,0,5.5-2.468,5.5-5.5c0-0.553-0.447-1-1-1h-2.25c-1.328,0-2.548,0.474-3.5,1.261
		v-0.261V56.252z M74.75,51.752h1.104c-0.432,1.444-1.771,2.5-3.354,2.5h-1.104C71.827,52.808,73.167,51.752,74.75,51.752z
		 M66.75,29.252h7v3.5c0,1.58-1.06,2.903-2.5,3.337c-0.319,0.096-0.65,0.163-1,0.163s-0.681-0.067-1-0.163
		c-1.44-0.434-2.5-1.757-2.5-3.337V29.252z M68,49.752c-1.583,0-2.923-1.056-3.354-2.5h1.104c1.583,0,2.923,1.056,3.354,2.5H68z
		 M68,58.752c-1.583,0-2.923-1.056-3.354-2.5h1.104c1.583,0,2.923,1.056,3.354,2.5H68z M74.75,60.752h1.104
		c-0.432,1.444-1.771,2.5-3.354,2.5h-1.104C71.827,61.808,73.167,60.752,74.75,60.752z"/>
	<path display="inline" d="M30.75,56.252H32c3.032,0,5.5-2.468,5.5-5.5c0-0.553-0.447-1-1-1h-2.25c-1.328,0-2.548,0.474-3.5,1.261
		v-0.261V38.156c2.556-0.473,4.5-2.714,4.5-5.404v-4.5c0-0.553-0.447-1-1-1h-9c-0.553,0-1,0.447-1,1v4.5
		c0,2.69,1.944,4.932,4.5,5.404v8.356c-0.952-0.787-2.172-1.261-3.5-1.261H23c-0.553,0-1,0.447-1,1c0,3.032,2.468,5.5,5.5,5.5h1.25
		v3.5v0.261c-0.952-0.787-2.172-1.261-3.5-1.261H23c-0.553,0-1,0.447-1,1c0,3.032,2.468,5.5,5.5,5.5h1.25v3.5v4.5
		c0,0.553,0.447,1,1,1s1-0.447,1-1v-3.5H32c3.032,0,5.5-2.468,5.5-5.5c0-0.553-0.447-1-1-1h-2.25c-1.328,0-2.548,0.474-3.5,1.261
		v-0.261V56.252z M34.25,51.752h1.104c-0.432,1.444-1.771,2.5-3.354,2.5h-1.104C31.327,52.808,32.667,51.752,34.25,51.752z
		 M26.25,29.252h7v3.5c0,1.58-1.06,2.903-2.5,3.337c-0.319,0.096-0.65,0.163-1,0.163s-0.681-0.067-1-0.163
		c-1.44-0.434-2.5-1.757-2.5-3.337V29.252z M27.5,49.752c-1.583,0-2.923-1.056-3.354-2.5h1.104c1.583,0,2.923,1.056,3.354,2.5H27.5z
		 M27.5,58.752c-1.583,0-2.923-1.056-3.354-2.5h1.104c1.583,0,2.923,1.056,3.354,2.5H27.5z M34.25,60.752h1.104
		c-0.432,1.444-1.771,2.5-3.354,2.5h-1.104C31.327,61.808,32.667,60.752,34.25,60.752z"/>
</g>
<g display="none">
	<path display="inline" d="M17.502,83.501c0.136,0,0.272-0.027,0.401-0.084c1.285-0.563,12.612-5.558,14.609-7.556l27.425-27.424
		l0.047,0.047c0.195,0.195,0.451,0.293,0.707,0.293s0.512-0.098,0.707-0.293l12.583-12.583l5.688-5.688
		c0.061,0.271,0.1,0.549,0.1,0.834c0,1.011-0.394,1.961-1.108,2.675l-9.408,9.41l-3.381,3.381c-0.391,0.391-0.391,1.023,0,1.414
		c0.195,0.195,0.451,0.293,0.707,0.293s0.512-0.098,0.707-0.293l12.789-12.791c1.093-1.092,1.694-2.544,1.694-4.089
		c0-0.844-0.194-1.653-0.536-2.399l0.224-0.223c2.723-2.724,2.723-7.156,0-9.88c-1.32-1.32-3.074-2.047-4.94-2.047
		c-1.865,0-3.62,0.727-4.939,2.047L51.518,38.604c-0.188,0.188-0.293,0.442-0.293,0.707s0.105,0.52,0.293,0.707l0.047,0.047
		L24.14,67.489c-1.997,1.997-6.991,13.325-7.554,14.61c-0.165,0.377-0.082,0.817,0.209,1.108
		C16.986,83.399,17.242,83.501,17.502,83.501z M76.516,18.499c1.332,0,2.584,0.519,3.526,1.461c1.462,1.462,1.822,3.613,1.086,5.417
		c-0.235,0.577-0.588,1.116-1.048,1.588c-0.015,0.015-0.023,0.032-0.038,0.046l-0.665,0.665l-0.051,0.05l-0.656,0.657L60.691,46.363
		l-0.047-0.047l-0.707-0.707l-5.545-5.545l-0.707-0.707l-0.047-0.047L72.99,19.96c0.507-0.506,1.107-0.879,1.758-1.126
		C75.307,18.622,75.9,18.499,76.516,18.499z M58.523,47.023L33.325,72.221l-5.545-5.544l25.198-25.198L58.523,47.023z
		 M31.911,73.635l-0.812,0.812c-1.115,1.115-6.896,3.936-11.62,6.077c2.142-4.724,4.961-10.507,6.075-11.621l0.812-0.813
		L31.911,73.635z"/>
</g>
<g display="none">
	<path display="inline" d="M86,29.99H33v-3.5c0-0.552-0.447-1-1-1h-9c-0.553,0-1,0.448-1,1v3.5h-8c-0.553,0-1,0.448-1,1v8.504
		v25.512v8.504c0,0.552,0.447,1,1,1h72c0.553,0,1-0.448,1-1v-31.5v-4.5v-6.52C87,30.438,86.553,29.99,86,29.99z M85,41.01H68.414
		l-2.5-2.5H85V41.01z M24,27.49h7v2.5h-7V27.49z M15,40.494h15.008v23.512H15V40.494z M85,72.51H15v-6.504h16.008
		c0.553,0,1-0.448,1-1V39.494c0-0.552-0.447-1-1-1H15V31.99h8h9h53v4.52H63.5c-0.404,0-0.77,0.244-0.924,0.617
		c-0.155,0.374-0.069,0.804,0.217,1.09l4.5,4.5C67.48,42.904,67.734,43.01,68,43.01h17v7h-8c-0.553,0-1,0.448-1,1s0.447,1,1,1h8v2.5
		h-8c-0.553,0-1,0.448-1,1s0.447,1,1,1h8v2.5h-8c-0.553,0-1,0.448-1,1s0.447,1,1,1h8v2.5h-8c-0.553,0-1,0.448-1,1s0.447,1,1,1h8
		V72.51z"/>
	<path display="inline" d="M52.268,38.494c-7.585,0-13.756,6.171-13.756,13.756s6.171,13.756,13.756,13.756
		s13.756-6.171,13.756-13.756S59.853,38.494,52.268,38.494z M52.268,64.006c-6.482,0-11.756-5.273-11.756-11.756
		s5.273-11.756,11.756-11.756s11.756,5.273,11.756,11.756S58.75,64.006,52.268,64.006z"/>
	<path display="inline" d="M52.268,46.998c-2.896,0-5.252,2.356-5.252,5.252s2.356,5.252,5.252,5.252s5.252-2.356,5.252-5.252
		S55.163,46.998,52.268,46.998z M52.268,55.502c-1.793,0-3.252-1.459-3.252-3.252s1.459-3.252,3.252-3.252s3.252,1.459,3.252,3.252
		S54.061,55.502,52.268,55.502z"/>
</g>
<g display="none">
	<path display="inline" d="M42.9,75.687c0.114,0.043,0.232,0.063,0.35,0.063c0.351,0,0.687-0.185,0.869-0.504l18-31.5
		c0.176-0.31,0.176-0.689-0.004-0.998c-0.179-0.309-0.508-0.498-0.865-0.498h-7.719l4.189-16.758
		c0.074-0.299,0.008-0.615-0.182-0.857c-0.189-0.243-0.48-0.385-0.789-0.385h-13.5c-0.488,0-0.906,0.354-0.986,0.836l-4.5,27
		c-0.048,0.29,0.033,0.586,0.224,0.811s0.47,0.354,0.763,0.354h7.781l-4.262,21.304C42.173,75.035,42.44,75.515,42.9,75.687z
		 M48.73,52.446c0.06-0.294-0.017-0.599-0.207-0.83c-0.189-0.231-0.473-0.366-0.773-0.366h-7.818l4.166-25h11.372L51.28,43.008
		c-0.075,0.299-0.007,0.615,0.183,0.857c0.189,0.243,0.479,0.385,0.787,0.385h7.277L45.439,68.903L48.73,52.446z"/>
</g>
<g display="none">
	<path display="inline" d="M32,76c-0.553,0-1,0.447-1,1v4.5c0,0.553,0.447,1,1,1h36c0.553,0,1-0.447,1-1V77c0-0.553-0.447-1-1-1H51
		V64.449C58.528,63.932,64.5,57.657,64.5,50v-9c0-0.553-0.447-1-1-1H60V27.5c0-5.514-4.486-10-10-10s-10,4.486-10,10V40h-3.5
		c-0.553,0-1,0.447-1,1v9c0,7.657,5.972,13.932,13.5,14.449V76H32z M58,28.5V31H42v-2.5H58z M58,35.5H42V33h16V35.5z M42,37.5h16V40
		H42V37.5z M42,49v-2.5h16V49H42z M58,44.5H42V42h16V44.5z M57.931,51c-0.495,3.939-3.858,7-7.931,7s-7.436-3.061-7.931-7H57.931z
		 M50,19.5c4.072,0,7.436,3.061,7.931,7H42.069C42.564,22.561,45.928,19.5,50,19.5z M37.5,50v-8H40v8c0,5.514,4.486,10,10,10
		s10-4.486,10-10v-8h2.5v8c0,6.893-5.607,12.5-12.5,12.5S37.5,56.893,37.5,50z M67,78v2.5H33V78h17H67z"/>
</g>
<g display="none">
	<path display="inline" d="M72.5,28.75c-3.033,0-5.5,2.468-5.5,5.5h2c0-1.93,1.57-3.5,3.5-3.5s3.5,1.57,3.5,3.5v26h-2.551
		c-0.504-5.046-4.772-9-9.949-9s-9.445,3.954-9.949,9h-7.102c-0.504-5.046-4.772-9-9.949-9s-9.445,3.954-9.949,9H24v-26
		c0-1.93,1.57-3.5,3.5-3.5s3.5,1.57,3.5,3.5h2c0-3.032-2.467-5.5-5.5-5.5s-5.5,2.468-5.5,5.5v27c0,0.553,0.447,1,1,1h3.551
		c0.504,5.046,4.772,9,9.949,9s9.445-3.954,9.949-9h7.102c0.504,5.046,4.772,9,9.949,9s9.445-3.954,9.949-9H77c0.553,0,1-0.447,1-1
		v-27C78,31.218,75.533,28.75,72.5,28.75z M36.5,69.25c-4.411,0-8-3.589-8-8s3.589-8,8-8s8,3.589,8,8S40.911,69.25,36.5,69.25z
		 M63.5,69.25c-4.411,0-8-3.589-8-8s3.589-8,8-8s8,3.589,8,8S67.911,69.25,63.5,69.25z"/>
</g>
<g>
	<path d="M74.75,31h-3.5v-3.5v-4c0-0.089-0.029-0.168-0.051-0.25c0.021-0.082,0.051-0.161,0.051-0.25v-4.5c0-0.553-0.447-1-1-1h-36
		c-5.514,0-10,4.486-10,10v45c0,5.514,4.486,10,10,10h40.5c0.553,0,1-0.447,1-1V32C75.75,31.447,75.303,31,74.75,31z M34.25,31
		c-1.58,0-2.903-1.06-3.337-2.5H69.25V31H34.25z M69.25,26.5H30.913c0.434-1.44,1.757-2.5,3.337-2.5h35V26.5z M26.25,72.5V33.494
		c1.637,2.179,4.145,3.66,7,3.946v42.99C29.311,79.936,26.25,76.572,26.25,72.5z M73.75,80.5h-38.5v-43h38.5V80.5z M73.75,35.5
		h-39.5c-4.411,0-8-3.589-8-8s3.589-8,8-8h35V22h-35c-3.032,0-5.5,2.468-5.5,5.5s2.468,5.5,5.5,5.5h39.5V35.5z"/>
	<path d="M43.25,60h22.5c0.553,0,1-0.447,1-1V45.5c0-0.553-0.447-1-1-1h-22.5c-0.553,0-1,0.447-1,1V59
		C42.25,59.553,42.697,60,43.25,60z M44.25,46.5h20.5V58h-20.5V46.5z"/>
	<path d="M43.25,64.5h22.5c0.553,0,1-0.447,1-1s-0.447-1-1-1h-22.5c-0.553,0-1,0.447-1,1S42.697,64.5,43.25,64.5z"/>
	<path d="M43.25,69h22.5c0.553,0,1-0.447,1-1s-0.447-1-1-1h-22.5c-0.553,0-1,0.447-1,1S42.697,69,43.25,69z"/>
	<path d="M43.25,73.5h22.5c0.553,0,1-0.447,1-1s-0.447-1-1-1h-22.5c-0.553,0-1,0.447-1,1S42.697,73.5,43.25,73.5z"/>
</g>
</svg>
